<svg xmlns="http://www.w3.org/2000/svg" width="216mm" height="279mm" viewBox="0 0 216 279">
<rect width="216" height="279" fill="white"/>
<g stroke="black" fill="none" stroke-width="0.25">
<circle cx="108.0" cy="148.0" r="92.0"/>
<circle cx="108.0" cy="148.0" r="80.0"/>
<circle cx="108.0" cy="148.0" r="4"/>
</g>
<g stroke="black" stroke-width="0.2">
<line x1="108.000" y1="56.000" x2="108.000" y2="68.000" stroke-width="0.45"/>
<line x1="109.606" y1="56.014" x2="109.545" y2="59.513" stroke-width="0.15"/>
<line x1="111.211" y1="56.056" x2="111.089" y2="59.554" stroke-width="0.15"/>
<line x1="112.815" y1="56.126" x2="112.632" y2="59.621" stroke-width="0.15"/>
<line x1="114.418" y1="56.224" x2="114.173" y2="59.716" stroke-width="0.15"/>
<line x1="116.018" y1="56.350" x2="115.408" y2="63.323" stroke-width="0.3"/>
<line x1="117.617" y1="56.504" x2="117.251" y2="59.985" stroke-width="0.15"/>
<line x1="119.212" y1="56.686" x2="118.785" y2="60.160" stroke-width="0.15"/>
<line x1="120.804" y1="56.895" x2="120.317" y2="60.361" stroke-width="0.15"/>
<line x1="122.392" y1="57.133" x2="121.844" y2="60.590" stroke-width="0.15"/>
<line x1="123.976" y1="57.398" x2="121.892" y2="69.215" stroke-width="0.45"/>
<line x1="125.554" y1="57.690" x2="124.887" y2="61.126" stroke-width="0.15"/>
<line x1="127.128" y1="58.010" x2="126.400" y2="61.434" stroke-width="0.15"/>
<line x1="128.695" y1="58.358" x2="127.908" y2="61.768" stroke-width="0.15"/>
<line x1="130.257" y1="58.733" x2="129.410" y2="62.129" stroke-width="0.15"/>
<line x1="131.811" y1="59.135" x2="130.000" y2="65.896" stroke-width="0.3"/>
<line x1="133.359" y1="59.564" x2="132.394" y2="62.928" stroke-width="0.15"/>
<line x1="134.898" y1="60.020" x2="133.875" y2="63.367" stroke-width="0.15"/>
<line x1="136.430" y1="60.503" x2="135.348" y2="63.831" stroke-width="0.15"/>
<line x1="137.952" y1="61.012" x2="136.813" y2="64.322" stroke-width="0.15"/>
<line x1="139.466" y1="61.548" x2="135.362" y2="72.825" stroke-width="0.45"/>
<line x1="140.970" y1="62.111" x2="139.716" y2="65.378" stroke-width="0.15"/>
<line x1="142.464" y1="62.699" x2="141.153" y2="65.944" stroke-width="0.15"/>
<line x1="143.947" y1="63.314" x2="142.580" y2="66.535" stroke-width="0.15"/>
<line x1="145.420" y1="63.954" x2="143.996" y2="67.151" stroke-width="0.15"/>
<line x1="146.881" y1="64.620" x2="143.923" y2="70.964" stroke-width="0.3"/>
<line x1="148.330" y1="65.311" x2="146.796" y2="68.457" stroke-width="0.15"/>
<line x1="149.767" y1="66.027" x2="148.178" y2="69.146" stroke-width="0.15"/>
<line x1="151.191" y1="66.769" x2="149.548" y2="69.859" stroke-width="0.15"/>
<line x1="152.602" y1="67.535" x2="150.906" y2="70.596" stroke-width="0.15"/>
<line x1="154.000" y1="68.326" x2="148.000" y2="78.718" stroke-width="0.45"/>
<line x1="155.384" y1="69.141" x2="153.581" y2="72.141" stroke-width="0.15"/>
<line x1="156.753" y1="69.980" x2="154.898" y2="72.948" stroke-width="0.15"/>
<line x1="158.107" y1="70.842" x2="156.201" y2="73.778" stroke-width="0.15"/>
<line x1="159.446" y1="71.729" x2="157.489" y2="74.630" stroke-width="0.15"/>
<line x1="160.769" y1="72.638" x2="156.754" y2="78.372" stroke-width="0.3"/>
<line x1="162.076" y1="73.570" x2="160.019" y2="76.402" stroke-width="0.15"/>
<line x1="163.367" y1="74.526" x2="161.261" y2="77.321" stroke-width="0.15"/>
<line x1="164.641" y1="75.503" x2="162.486" y2="78.261" stroke-width="0.15"/>
<line x1="165.897" y1="76.503" x2="163.695" y2="79.223" stroke-width="0.15"/>
<line x1="167.136" y1="77.524" x2="159.423" y2="86.716" stroke-width="0.45"/>
<line x1="168.357" y1="78.567" x2="166.061" y2="81.208" stroke-width="0.15"/>
<line x1="169.560" y1="79.631" x2="167.218" y2="82.232" stroke-width="0.15"/>
<line x1="170.744" y1="80.715" x2="168.357" y2="83.275" stroke-width="0.15"/>
<line x1="171.909" y1="81.821" x2="169.477" y2="84.338" stroke-width="0.15"/>
<line x1="173.054" y1="82.946" x2="168.104" y2="87.896" stroke-width="0.3"/>
<line x1="174.179" y1="84.091" x2="171.662" y2="86.523" stroke-width="0.15"/>
<line x1="175.285" y1="85.256" x2="172.725" y2="87.643" stroke-width="0.15"/>
<line x1="176.369" y1="86.440" x2="173.768" y2="88.782" stroke-width="0.15"/>
<line x1="177.433" y1="87.643" x2="174.792" y2="89.939" stroke-width="0.15"/>
<line x1="178.476" y1="88.864" x2="169.284" y2="96.577" stroke-width="0.45"/>
<line x1="179.497" y1="90.103" x2="176.777" y2="92.305" stroke-width="0.15"/>
<line x1="180.497" y1="91.359" x2="177.739" y2="93.514" stroke-width="0.15"/>
<line x1="181.474" y1="92.633" x2="178.679" y2="94.739" stroke-width="0.15"/>
<line x1="182.430" y1="93.924" x2="179.598" y2="95.981" stroke-width="0.15"/>
<line x1="183.362" y1="95.231" x2="177.628" y2="99.246" stroke-width="0.3"/>
<line x1="184.271" y1="96.554" x2="181.370" y2="98.511" stroke-width="0.15"/>
<line x1="185.158" y1="97.893" x2="182.222" y2="99.799" stroke-width="0.15"/>
<line x1="186.020" y1="99.247" x2="183.052" y2="101.102" stroke-width="0.15"/>
<line x1="186.859" y1="100.616" x2="183.859" y2="102.419" stroke-width="0.15"/>
<line x1="187.674" y1="102.000" x2="177.282" y2="108.000" stroke-width="0.45"/>
<line x1="188.465" y1="103.398" x2="185.404" y2="105.094" stroke-width="0.15"/>
<line x1="189.231" y1="104.809" x2="186.141" y2="106.452" stroke-width="0.15"/>
<line x1="189.973" y1="106.233" x2="186.854" y2="107.822" stroke-width="0.15"/>
<line x1="190.689" y1="107.670" x2="187.543" y2="109.204" stroke-width="0.15"/>
<line x1="191.380" y1="109.119" x2="185.036" y2="112.077" stroke-width="0.3"/>
<line x1="192.046" y1="110.580" x2="188.849" y2="112.004" stroke-width="0.15"/>
<line x1="192.686" y1="112.053" x2="189.465" y2="113.420" stroke-width="0.15"/>
<line x1="193.301" y1="113.536" x2="190.056" y2="114.847" stroke-width="0.15"/>
<line x1="193.889" y1="115.030" x2="190.622" y2="116.284" stroke-width="0.15"/>
<line x1="194.452" y1="116.534" x2="183.175" y2="120.638" stroke-width="0.45"/>
<line x1="194.988" y1="118.048" x2="191.678" y2="119.187" stroke-width="0.15"/>
<line x1="195.497" y1="119.570" x2="192.169" y2="120.652" stroke-width="0.15"/>
<line x1="195.980" y1="121.102" x2="192.633" y2="122.125" stroke-width="0.15"/>
<line x1="196.436" y1="122.641" x2="193.072" y2="123.606" stroke-width="0.15"/>
<line x1="196.865" y1="124.189" x2="190.104" y2="126.000" stroke-width="0.3"/>
<line x1="197.267" y1="125.743" x2="193.871" y2="126.590" stroke-width="0.15"/>
<line x1="197.642" y1="127.305" x2="194.232" y2="128.092" stroke-width="0.15"/>
<line x1="197.990" y1="128.872" x2="194.566" y2="129.600" stroke-width="0.15"/>
<line x1="198.310" y1="130.446" x2="194.874" y2="131.113" stroke-width="0.15"/>
<line x1="198.602" y1="132.024" x2="186.785" y2="134.108" stroke-width="0.45"/>
<line x1="198.867" y1="133.608" x2="195.410" y2="134.156" stroke-width="0.15"/>
<line x1="199.105" y1="135.196" x2="195.639" y2="135.683" stroke-width="0.15"/>
<line x1="199.314" y1="136.788" x2="195.840" y2="137.215" stroke-width="0.15"/>
<line x1="199.496" y1="138.383" x2="196.015" y2="138.749" stroke-width="0.15"/>
<line x1="199.650" y1="139.982" x2="192.677" y2="140.592" stroke-width="0.3"/>
<line x1="199.776" y1="141.582" x2="196.284" y2="141.827" stroke-width="0.15"/>
<line x1="199.874" y1="143.185" x2="196.379" y2="143.368" stroke-width="0.15"/>
<line x1="199.944" y1="144.789" x2="196.446" y2="144.911" stroke-width="0.15"/>
<line x1="199.986" y1="146.394" x2="196.487" y2="146.455" stroke-width="0.15"/>
<line x1="200.000" y1="148.000" x2="188.000" y2="148.000" stroke-width="0.45"/>
<line x1="199.986" y1="149.606" x2="196.487" y2="149.545" stroke-width="0.15"/>
<line x1="199.944" y1="151.211" x2="196.446" y2="151.089" stroke-width="0.15"/>
<line x1="199.874" y1="152.815" x2="196.379" y2="152.632" stroke-width="0.15"/>
<line x1="199.776" y1="154.418" x2="196.284" y2="154.173" stroke-width="0.15"/>
<line x1="199.650" y1="156.018" x2="192.677" y2="155.408" stroke-width="0.3"/>
<line x1="199.496" y1="157.617" x2="196.015" y2="157.251" stroke-width="0.15"/>
<line x1="199.314" y1="159.212" x2="195.840" y2="158.785" stroke-width="0.15"/>
<line x1="199.105" y1="160.804" x2="195.639" y2="160.317" stroke-width="0.15"/>
<line x1="198.867" y1="162.392" x2="195.410" y2="161.844" stroke-width="0.15"/>
<line x1="198.602" y1="163.976" x2="186.785" y2="161.892" stroke-width="0.45"/>
<line x1="198.310" y1="165.554" x2="194.874" y2="164.887" stroke-width="0.15"/>
<line x1="197.990" y1="167.128" x2="194.566" y2="166.400" stroke-width="0.15"/>
<line x1="197.642" y1="168.695" x2="194.232" y2="167.908" stroke-width="0.15"/>
<line x1="197.267" y1="170.257" x2="193.871" y2="169.410" stroke-width="0.15"/>
<line x1="196.865" y1="171.811" x2="190.104" y2="170.000" stroke-width="0.3"/>
<line x1="196.436" y1="173.359" x2="193.072" y2="172.394" stroke-width="0.15"/>
<line x1="195.980" y1="174.898" x2="192.633" y2="173.875" stroke-width="0.15"/>
<line x1="195.497" y1="176.430" x2="192.169" y2="175.348" stroke-width="0.15"/>
<line x1="194.988" y1="177.952" x2="191.678" y2="176.813" stroke-width="0.15"/>
<line x1="194.452" y1="179.466" x2="183.175" y2="175.362" stroke-width="0.45"/>
<line x1="193.889" y1="180.970" x2="190.622" y2="179.716" stroke-width="0.15"/>
<line x1="193.301" y1="182.464" x2="190.056" y2="181.153" stroke-width="0.15"/>
<line x1="192.686" y1="183.947" x2="189.465" y2="182.580" stroke-width="0.15"/>
<line x1="192.046" y1="185.420" x2="188.849" y2="183.996" stroke-width="0.15"/>
<line x1="191.380" y1="186.881" x2="185.036" y2="183.923" stroke-width="0.3"/>
<line x1="190.689" y1="188.330" x2="187.543" y2="186.796" stroke-width="0.15"/>
<line x1="189.973" y1="189.767" x2="186.854" y2="188.178" stroke-width="0.15"/>
<line x1="189.231" y1="191.191" x2="186.141" y2="189.548" stroke-width="0.15"/>
<line x1="188.465" y1="192.602" x2="185.404" y2="190.906" stroke-width="0.15"/>
<line x1="187.674" y1="194.000" x2="177.282" y2="188.000" stroke-width="0.45"/>
<line x1="186.859" y1="195.384" x2="183.859" y2="193.581" stroke-width="0.15"/>
<line x1="186.020" y1="196.753" x2="183.052" y2="194.898" stroke-width="0.15"/>
<line x1="185.158" y1="198.107" x2="182.222" y2="196.201" stroke-width="0.15"/>
<line x1="184.271" y1="199.446" x2="181.370" y2="197.489" stroke-width="0.15"/>
<line x1="183.362" y1="200.769" x2="177.628" y2="196.754" stroke-width="0.3"/>
<line x1="182.430" y1="202.076" x2="179.598" y2="200.019" stroke-width="0.15"/>
<line x1="181.474" y1="203.367" x2="178.679" y2="201.261" stroke-width="0.15"/>
<line x1="180.497" y1="204.641" x2="177.739" y2="202.486" stroke-width="0.15"/>
<line x1="179.497" y1="205.897" x2="176.777" y2="203.695" stroke-width="0.15"/>
<line x1="178.476" y1="207.136" x2="169.284" y2="199.423" stroke-width="0.45"/>
<line x1="177.433" y1="208.357" x2="174.792" y2="206.061" stroke-width="0.15"/>
<line x1="176.369" y1="209.560" x2="173.768" y2="207.218" stroke-width="0.15"/>
<line x1="175.285" y1="210.744" x2="172.725" y2="208.357" stroke-width="0.15"/>
<line x1="174.179" y1="211.909" x2="171.662" y2="209.477" stroke-width="0.15"/>
<line x1="173.054" y1="213.054" x2="168.104" y2="208.104" stroke-width="0.3"/>
<line x1="171.909" y1="214.179" x2="169.477" y2="211.662" stroke-width="0.15"/>
<line x1="170.744" y1="215.285" x2="168.357" y2="212.725" stroke-width="0.15"/>
<line x1="169.560" y1="216.369" x2="167.218" y2="213.768" stroke-width="0.15"/>
<line x1="168.357" y1="217.433" x2="166.061" y2="214.792" stroke-width="0.15"/>
<line x1="167.136" y1="218.476" x2="159.423" y2="209.284" stroke-width="0.45"/>
<line x1="165.897" y1="219.497" x2="163.695" y2="216.777" stroke-width="0.15"/>
<line x1="164.641" y1="220.497" x2="162.486" y2="217.739" stroke-width="0.15"/>
<line x1="163.367" y1="221.474" x2="161.261" y2="218.679" stroke-width="0.15"/>
<line x1="162.076" y1="222.430" x2="160.019" y2="219.598" stroke-width="0.15"/>
<line x1="160.769" y1="223.362" x2="156.754" y2="217.628" stroke-width="0.3"/>
<line x1="159.446" y1="224.271" x2="157.489" y2="221.370" stroke-width="0.15"/>
<line x1="158.107" y1="225.158" x2="156.201" y2="222.222" stroke-width="0.15"/>
<line x1="156.753" y1="226.020" x2="154.898" y2="223.052" stroke-width="0.15"/>
<line x1="155.384" y1="226.859" x2="153.581" y2="223.859" stroke-width="0.15"/>
<line x1="154.000" y1="227.674" x2="148.000" y2="217.282" stroke-width="0.45"/>
<line x1="152.602" y1="228.465" x2="150.906" y2="225.404" stroke-width="0.15"/>
<line x1="151.191" y1="229.231" x2="149.548" y2="226.141" stroke-width="0.15"/>
<line x1="149.767" y1="229.973" x2="148.178" y2="226.854" stroke-width="0.15"/>
<line x1="148.330" y1="230.689" x2="146.796" y2="227.543" stroke-width="0.15"/>
<line x1="146.881" y1="231.380" x2="143.923" y2="225.036" stroke-width="0.3"/>
<line x1="145.420" y1="232.046" x2="143.996" y2="228.849" stroke-width="0.15"/>
<line x1="143.947" y1="232.686" x2="142.580" y2="229.465" stroke-width="0.15"/>
<line x1="142.464" y1="233.301" x2="141.153" y2="230.056" stroke-width="0.15"/>
<line x1="140.970" y1="233.889" x2="139.716" y2="230.622" stroke-width="0.15"/>
<line x1="139.466" y1="234.452" x2="135.362" y2="223.175" stroke-width="0.45"/>
<line x1="137.952" y1="234.988" x2="136.813" y2="231.678" stroke-width="0.15"/>
<line x1="136.430" y1="235.497" x2="135.348" y2="232.169" stroke-width="0.15"/>
<line x1="134.898" y1="235.980" x2="133.875" y2="232.633" stroke-width="0.15"/>
<line x1="133.359" y1="236.436" x2="132.394" y2="233.072" stroke-width="0.15"/>
<line x1="131.811" y1="236.865" x2="130.000" y2="230.104" stroke-width="0.3"/>
<line x1="130.257" y1="237.267" x2="129.410" y2="233.871" stroke-width="0.15"/>
<line x1="128.695" y1="237.642" x2="127.908" y2="234.232" stroke-width="0.15"/>
<line x1="127.128" y1="237.990" x2="126.400" y2="234.566" stroke-width="0.15"/>
<line x1="125.554" y1="238.310" x2="124.887" y2="234.874" stroke-width="0.15"/>
<line x1="123.976" y1="238.602" x2="121.892" y2="226.785" stroke-width="0.45"/>
<line x1="122.392" y1="238.867" x2="121.844" y2="235.410" stroke-width="0.15"/>
<line x1="120.804" y1="239.105" x2="120.317" y2="235.639" stroke-width="0.15"/>
<line x1="119.212" y1="239.314" x2="118.785" y2="235.840" stroke-width="0.15"/>
<line x1="117.617" y1="239.496" x2="117.251" y2="236.015" stroke-width="0.15"/>
<line x1="116.018" y1="239.650" x2="115.408" y2="232.677" stroke-width="0.3"/>
<line x1="114.418" y1="239.776" x2="114.173" y2="236.284" stroke-width="0.15"/>
<line x1="112.815" y1="239.874" x2="112.632" y2="236.379" stroke-width="0.15"/>
<line x1="111.211" y1="239.944" x2="111.089" y2="236.446" stroke-width="0.15"/>
<line x1="109.606" y1="239.986" x2="109.545" y2="236.487" stroke-width="0.15"/>
<line x1="108.000" y1="240.000" x2="108.000" y2="228.000" stroke-width="0.45"/>
<line x1="106.394" y1="239.986" x2="106.455" y2="236.487" stroke-width="0.15"/>
<line x1="104.789" y1="239.944" x2="104.911" y2="236.446" stroke-width="0.15"/>
<line x1="103.185" y1="239.874" x2="103.368" y2="236.379" stroke-width="0.15"/>
<line x1="101.582" y1="239.776" x2="101.827" y2="236.284" stroke-width="0.15"/>
<line x1="99.982" y1="239.650" x2="100.592" y2="232.677" stroke-width="0.3"/>
<line x1="98.383" y1="239.496" x2="98.749" y2="236.015" stroke-width="0.15"/>
<line x1="96.788" y1="239.314" x2="97.215" y2="235.840" stroke-width="0.15"/>
<line x1="95.196" y1="239.105" x2="95.683" y2="235.639" stroke-width="0.15"/>
<line x1="93.608" y1="238.867" x2="94.156" y2="235.410" stroke-width="0.15"/>
<line x1="92.024" y1="238.602" x2="94.108" y2="226.785" stroke-width="0.45"/>
<line x1="90.446" y1="238.310" x2="91.113" y2="234.874" stroke-width="0.15"/>
<line x1="88.872" y1="237.990" x2="89.600" y2="234.566" stroke-width="0.15"/>
<line x1="87.305" y1="237.642" x2="88.092" y2="234.232" stroke-width="0.15"/>
<line x1="85.743" y1="237.267" x2="86.590" y2="233.871" stroke-width="0.15"/>
<line x1="84.189" y1="236.865" x2="86.000" y2="230.104" stroke-width="0.3"/>
<line x1="82.641" y1="236.436" x2="83.606" y2="233.072" stroke-width="0.15"/>
<line x1="81.102" y1="235.980" x2="82.125" y2="232.633" stroke-width="0.15"/>
<line x1="79.570" y1="235.497" x2="80.652" y2="232.169" stroke-width="0.15"/>
<line x1="78.048" y1="234.988" x2="79.187" y2="231.678" stroke-width="0.15"/>
<line x1="76.534" y1="234.452" x2="80.638" y2="223.175" stroke-width="0.45"/>
<line x1="75.030" y1="233.889" x2="76.284" y2="230.622" stroke-width="0.15"/>
<line x1="73.536" y1="233.301" x2="74.847" y2="230.056" stroke-width="0.15"/>
<line x1="72.053" y1="232.686" x2="73.420" y2="229.465" stroke-width="0.15"/>
<line x1="70.580" y1="232.046" x2="72.004" y2="228.849" stroke-width="0.15"/>
<line x1="69.119" y1="231.380" x2="72.077" y2="225.036" stroke-width="0.3"/>
<line x1="67.670" y1="230.689" x2="69.204" y2="227.543" stroke-width="0.15"/>
<line x1="66.233" y1="229.973" x2="67.822" y2="226.854" stroke-width="0.15"/>
<line x1="64.809" y1="229.231" x2="66.452" y2="226.141" stroke-width="0.15"/>
<line x1="63.398" y1="228.465" x2="65.094" y2="225.404" stroke-width="0.15"/>
<line x1="62.000" y1="227.674" x2="68.000" y2="217.282" stroke-width="0.45"/>
<line x1="60.616" y1="226.859" x2="62.419" y2="223.859" stroke-width="0.15"/>
<line x1="59.247" y1="226.020" x2="61.102" y2="223.052" stroke-width="0.15"/>
<line x1="57.893" y1="225.158" x2="59.799" y2="222.222" stroke-width="0.15"/>
<line x1="56.554" y1="224.271" x2="58.511" y2="221.370" stroke-width="0.15"/>
<line x1="55.231" y1="223.362" x2="59.246" y2="217.628" stroke-width="0.3"/>
<line x1="53.924" y1="222.430" x2="55.981" y2="219.598" stroke-width="0.15"/>
<line x1="52.633" y1="221.474" x2="54.739" y2="218.679" stroke-width="0.15"/>
<line x1="51.359" y1="220.497" x2="53.514" y2="217.739" stroke-width="0.15"/>
<line x1="50.103" y1="219.497" x2="52.305" y2="216.777" stroke-width="0.15"/>
<line x1="48.864" y1="218.476" x2="56.577" y2="209.284" stroke-width="0.45"/>
<line x1="47.643" y1="217.433" x2="49.939" y2="214.792" stroke-width="0.15"/>
<line x1="46.440" y1="216.369" x2="48.782" y2="213.768" stroke-width="0.15"/>
<line x1="45.256" y1="215.285" x2="47.643" y2="212.725" stroke-width="0.15"/>
<line x1="44.091" y1="214.179" x2="46.523" y2="211.662" stroke-width="0.15"/>
<line x1="42.946" y1="213.054" x2="47.896" y2="208.104" stroke-width="0.3"/>
<line x1="41.821" y1="211.909" x2="44.338" y2="209.477" stroke-width="0.15"/>
<line x1="40.715" y1="210.744" x2="43.275" y2="208.357" stroke-width="0.15"/>
<line x1="39.631" y1="209.560" x2="42.232" y2="207.218" stroke-width="0.15"/>
<line x1="38.567" y1="208.357" x2="41.208" y2="206.061" stroke-width="0.15"/>
<line x1="37.524" y1="207.136" x2="46.716" y2="199.423" stroke-width="0.45"/>
<line x1="36.503" y1="205.897" x2="39.223" y2="203.695" stroke-width="0.15"/>
<line x1="35.503" y1="204.641" x2="38.261" y2="202.486" stroke-width="0.15"/>
<line x1="34.526" y1="203.367" x2="37.321" y2="201.261" stroke-width="0.15"/>
<line x1="33.570" y1="202.076" x2="36.402" y2="200.019" stroke-width="0.15"/>
<line x1="32.638" y1="200.769" x2="38.372" y2="196.754" stroke-width="0.3"/>
<line x1="31.729" y1="199.446" x2="34.630" y2="197.489" stroke-width="0.15"/>
<line x1="30.842" y1="198.107" x2="33.778" y2="196.201" stroke-width="0.15"/>
<line x1="29.980" y1="196.753" x2="32.948" y2="194.898" stroke-width="0.15"/>
<line x1="29.141" y1="195.384" x2="32.141" y2="193.581" stroke-width="0.15"/>
<line x1="28.326" y1="194.000" x2="38.718" y2="188.000" stroke-width="0.45"/>
<line x1="27.535" y1="192.602" x2="30.596" y2="190.906" stroke-width="0.15"/>
<line x1="26.769" y1="191.191" x2="29.859" y2="189.548" stroke-width="0.15"/>
<line x1="26.027" y1="189.767" x2="29.146" y2="188.178" stroke-width="0.15"/>
<line x1="25.311" y1="188.330" x2="28.457" y2="186.796" stroke-width="0.15"/>
<line x1="24.620" y1="186.881" x2="30.964" y2="183.923" stroke-width="0.3"/>
<line x1="23.954" y1="185.420" x2="27.151" y2="183.996" stroke-width="0.15"/>
<line x1="23.314" y1="183.947" x2="26.535" y2="182.580" stroke-width="0.15"/>
<line x1="22.699" y1="182.464" x2="25.944" y2="181.153" stroke-width="0.15"/>
<line x1="22.111" y1="180.970" x2="25.378" y2="179.716" stroke-width="0.15"/>
<line x1="21.548" y1="179.466" x2="32.825" y2="175.362" stroke-width="0.45"/>
<line x1="21.012" y1="177.952" x2="24.322" y2="176.813" stroke-width="0.15"/>
<line x1="20.503" y1="176.430" x2="23.831" y2="175.348" stroke-width="0.15"/>
<line x1="20.020" y1="174.898" x2="23.367" y2="173.875" stroke-width="0.15"/>
<line x1="19.564" y1="173.359" x2="22.928" y2="172.394" stroke-width="0.15"/>
<line x1="19.135" y1="171.811" x2="25.896" y2="170.000" stroke-width="0.3"/>
<line x1="18.733" y1="170.257" x2="22.129" y2="169.410" stroke-width="0.15"/>
<line x1="18.358" y1="168.695" x2="21.768" y2="167.908" stroke-width="0.15"/>
<line x1="18.010" y1="167.128" x2="21.434" y2="166.400" stroke-width="0.15"/>
<line x1="17.690" y1="165.554" x2="21.126" y2="164.887" stroke-width="0.15"/>
<line x1="17.398" y1="163.976" x2="29.215" y2="161.892" stroke-width="0.45"/>
<line x1="17.133" y1="162.392" x2="20.590" y2="161.844" stroke-width="0.15"/>
<line x1="16.895" y1="160.804" x2="20.361" y2="160.317" stroke-width="0.15"/>
<line x1="16.686" y1="159.212" x2="20.160" y2="158.785" stroke-width="0.15"/>
<line x1="16.504" y1="157.617" x2="19.985" y2="157.251" stroke-width="0.15"/>
<line x1="16.350" y1="156.018" x2="23.323" y2="155.408" stroke-width="0.3"/>
<line x1="16.224" y1="154.418" x2="19.716" y2="154.173" stroke-width="0.15"/>
<line x1="16.126" y1="152.815" x2="19.621" y2="152.632" stroke-width="0.15"/>
<line x1="16.056" y1="151.211" x2="19.554" y2="151.089" stroke-width="0.15"/>
<line x1="16.014" y1="149.606" x2="19.513" y2="149.545" stroke-width="0.15"/>
<line x1="16.000" y1="148.000" x2="28.000" y2="148.000" stroke-width="0.45"/>
<line x1="16.014" y1="146.394" x2="19.513" y2="146.455" stroke-width="0.15"/>
<line x1="16.056" y1="144.789" x2="19.554" y2="144.911" stroke-width="0.15"/>
<line x1="16.126" y1="143.185" x2="19.621" y2="143.368" stroke-width="0.15"/>
<line x1="16.224" y1="141.582" x2="19.716" y2="141.827" stroke-width="0.15"/>
<line x1="16.350" y1="139.982" x2="23.323" y2="140.592" stroke-width="0.3"/>
<line x1="16.504" y1="138.383" x2="19.985" y2="138.749" stroke-width="0.15"/>
<line x1="16.686" y1="136.788" x2="20.160" y2="137.215" stroke-width="0.15"/>
<line x1="16.895" y1="135.196" x2="20.361" y2="135.683" stroke-width="0.15"/>
<line x1="17.133" y1="133.608" x2="20.590" y2="134.156" stroke-width="0.15"/>
<line x1="17.398" y1="132.024" x2="29.215" y2="134.108" stroke-width="0.45"/>
<line x1="17.690" y1="130.446" x2="21.126" y2="131.113" stroke-width="0.15"/>
<line x1="18.010" y1="128.872" x2="21.434" y2="129.600" stroke-width="0.15"/>
<line x1="18.358" y1="127.305" x2="21.768" y2="128.092" stroke-width="0.15"/>
<line x1="18.733" y1="125.743" x2="22.129" y2="126.590" stroke-width="0.15"/>
<line x1="19.135" y1="124.189" x2="25.896" y2="126.000" stroke-width="0.3"/>
<line x1="19.564" y1="122.641" x2="22.928" y2="123.606" stroke-width="0.15"/>
<line x1="20.020" y1="121.102" x2="23.367" y2="122.125" stroke-width="0.15"/>
<line x1="20.503" y1="119.570" x2="23.831" y2="120.652" stroke-width="0.15"/>
<line x1="21.012" y1="118.048" x2="24.322" y2="119.187" stroke-width="0.15"/>
<line x1="21.548" y1="116.534" x2="32.825" y2="120.638" stroke-width="0.45"/>
<line x1="22.111" y1="115.030" x2="25.378" y2="116.284" stroke-width="0.15"/>
<line x1="22.699" y1="113.536" x2="25.944" y2="114.847" stroke-width="0.15"/>
<line x1="23.314" y1="112.053" x2="26.535" y2="113.420" stroke-width="0.15"/>
<line x1="23.954" y1="110.580" x2="27.151" y2="112.004" stroke-width="0.15"/>
<line x1="24.620" y1="109.119" x2="30.964" y2="112.077" stroke-width="0.3"/>
<line x1="25.311" y1="107.670" x2="28.457" y2="109.204" stroke-width="0.15"/>
<line x1="26.027" y1="106.233" x2="29.146" y2="107.822" stroke-width="0.15"/>
<line x1="26.769" y1="104.809" x2="29.859" y2="106.452" stroke-width="0.15"/>
<line x1="27.535" y1="103.398" x2="30.596" y2="105.094" stroke-width="0.15"/>
<line x1="28.326" y1="102.000" x2="38.718" y2="108.000" stroke-width="0.45"/>
<line x1="29.141" y1="100.616" x2="32.141" y2="102.419" stroke-width="0.15"/>
<line x1="29.980" y1="99.247" x2="32.948" y2="101.102" stroke-width="0.15"/>
<line x1="30.842" y1="97.893" x2="33.778" y2="99.799" stroke-width="0.15"/>
<line x1="31.729" y1="96.554" x2="34.630" y2="98.511" stroke-width="0.15"/>
<line x1="32.638" y1="95.231" x2="38.372" y2="99.246" stroke-width="0.3"/>
<line x1="33.570" y1="93.924" x2="36.402" y2="95.981" stroke-width="0.15"/>
<line x1="34.526" y1="92.633" x2="37.321" y2="94.739" stroke-width="0.15"/>
<line x1="35.503" y1="91.359" x2="38.261" y2="93.514" stroke-width="0.15"/>
<line x1="36.503" y1="90.103" x2="39.223" y2="92.305" stroke-width="0.15"/>
<line x1="37.524" y1="88.864" x2="46.716" y2="96.577" stroke-width="0.45"/>
<line x1="38.567" y1="87.643" x2="41.208" y2="89.939" stroke-width="0.15"/>
<line x1="39.631" y1="86.440" x2="42.232" y2="88.782" stroke-width="0.15"/>
<line x1="40.715" y1="85.256" x2="43.275" y2="87.643" stroke-width="0.15"/>
<line x1="41.821" y1="84.091" x2="44.338" y2="86.523" stroke-width="0.15"/>
<line x1="42.946" y1="82.946" x2="47.896" y2="87.896" stroke-width="0.3"/>
<line x1="44.091" y1="81.821" x2="46.523" y2="84.338" stroke-width="0.15"/>
<line x1="45.256" y1="80.715" x2="47.643" y2="83.275" stroke-width="0.15"/>
<line x1="46.440" y1="79.631" x2="48.782" y2="82.232" stroke-width="0.15"/>
<line x1="47.643" y1="78.567" x2="49.939" y2="81.208" stroke-width="0.15"/>
<line x1="48.864" y1="77.524" x2="56.577" y2="86.716" stroke-width="0.45"/>
<line x1="50.103" y1="76.503" x2="52.305" y2="79.223" stroke-width="0.15"/>
<line x1="51.359" y1="75.503" x2="53.514" y2="78.261" stroke-width="0.15"/>
<line x1="52.633" y1="74.526" x2="54.739" y2="77.321" stroke-width="0.15"/>
<line x1="53.924" y1="73.570" x2="55.981" y2="76.402" stroke-width="0.15"/>
<line x1="55.231" y1="72.638" x2="59.246" y2="78.372" stroke-width="0.3"/>
<line x1="56.554" y1="71.729" x2="58.511" y2="74.630" stroke-width="0.15"/>
<line x1="57.893" y1="70.842" x2="59.799" y2="73.778" stroke-width="0.15"/>
<line x1="59.247" y1="69.980" x2="61.102" y2="72.948" stroke-width="0.15"/>
<line x1="60.616" y1="69.141" x2="62.419" y2="72.141" stroke-width="0.15"/>
<line x1="62.000" y1="68.326" x2="68.000" y2="78.718" stroke-width="0.45"/>
<line x1="63.398" y1="67.535" x2="65.094" y2="70.596" stroke-width="0.15"/>
<line x1="64.809" y1="66.769" x2="66.452" y2="69.859" stroke-width="0.15"/>
<line x1="66.233" y1="66.027" x2="67.822" y2="69.146" stroke-width="0.15"/>
<line x1="67.670" y1="65.311" x2="69.204" y2="68.457" stroke-width="0.15"/>
<line x1="69.119" y1="64.620" x2="72.077" y2="70.964" stroke-width="0.3"/>
<line x1="70.580" y1="63.954" x2="72.004" y2="67.151" stroke-width="0.15"/>
<line x1="72.053" y1="63.314" x2="73.420" y2="66.535" stroke-width="0.15"/>
<line x1="73.536" y1="62.699" x2="74.847" y2="65.944" stroke-width="0.15"/>
<line x1="75.030" y1="62.111" x2="76.284" y2="65.378" stroke-width="0.15"/>
<line x1="76.534" y1="61.548" x2="80.638" y2="72.825" stroke-width="0.45"/>
<line x1="78.048" y1="61.012" x2="79.187" y2="64.322" stroke-width="0.15"/>
<line x1="79.570" y1="60.503" x2="80.652" y2="63.831" stroke-width="0.15"/>
<line x1="81.102" y1="60.020" x2="82.125" y2="63.367" stroke-width="0.15"/>
<line x1="82.641" y1="59.564" x2="83.606" y2="62.928" stroke-width="0.15"/>
<line x1="84.189" y1="59.135" x2="86.000" y2="65.896" stroke-width="0.3"/>
<line x1="85.743" y1="58.733" x2="86.590" y2="62.129" stroke-width="0.15"/>
<line x1="87.305" y1="58.358" x2="88.092" y2="61.768" stroke-width="0.15"/>
<line x1="88.872" y1="58.010" x2="89.600" y2="61.434" stroke-width="0.15"/>
<line x1="90.446" y1="57.690" x2="91.113" y2="61.126" stroke-width="0.15"/>
<line x1="92.024" y1="57.398" x2="94.108" y2="69.215" stroke-width="0.45"/>
<line x1="93.608" y1="57.133" x2="94.156" y2="60.590" stroke-width="0.15"/>
<line x1="95.196" y1="56.895" x2="95.683" y2="60.361" stroke-width="0.15"/>
<line x1="96.788" y1="56.686" x2="97.215" y2="60.160" stroke-width="0.15"/>
<line x1="98.383" y1="56.504" x2="98.749" y2="59.985" stroke-width="0.15"/>
<line x1="99.982" y1="56.350" x2="100.592" y2="63.323" stroke-width="0.3"/>
<line x1="101.582" y1="56.224" x2="101.827" y2="59.716" stroke-width="0.15"/>
<line x1="103.185" y1="56.126" x2="103.368" y2="59.621" stroke-width="0.15"/>
<line x1="104.789" y1="56.056" x2="104.911" y2="59.554" stroke-width="0.15"/>
<line x1="106.394" y1="56.014" x2="106.455" y2="59.513" stroke-width="0.15"/>
</g>
<g font-family="Helvetica,Arial" font-size="3.6" text-anchor="middle">
<text x="108.000" y="73.800" transform="rotate(0 108.000 72.500)">0</text>
<text x="121.110" y="74.947" transform="rotate(10 121.110 73.647)">10</text>
<text x="133.823" y="78.353" transform="rotate(20 133.823 77.053)">20</text>
<text x="145.750" y="83.915" transform="rotate(30 145.750 82.615)">30</text>
<text x="156.530" y="91.464" transform="rotate(40 156.530 90.164)">40</text>
<text x="165.836" y="100.770" transform="rotate(50 165.836 99.470)">50</text>
<text x="173.385" y="111.550" transform="rotate(60 173.385 110.250)">60</text>
<text x="178.947" y="123.477" transform="rotate(70 178.947 122.177)">70</text>
<text x="182.353" y="136.190" transform="rotate(80 182.353 134.890)">80</text>
<text x="183.500" y="149.300" transform="rotate(90 183.500 148.000)">90</text>
<text x="182.353" y="162.410" transform="rotate(100 182.353 161.110)">100</text>
<text x="178.947" y="175.123" transform="rotate(110 178.947 173.823)">110</text>
<text x="173.385" y="187.050" transform="rotate(120 173.385 185.750)">120</text>
<text x="165.836" y="197.830" transform="rotate(130 165.836 196.530)">130</text>
<text x="156.530" y="207.136" transform="rotate(140 156.530 205.836)">140</text>
<text x="145.750" y="214.685" transform="rotate(150 145.750 213.385)">150</text>
<text x="133.823" y="220.247" transform="rotate(160 133.823 218.947)">160</text>
<text x="121.110" y="223.653" transform="rotate(170 121.110 222.353)">170</text>
<text x="108.000" y="224.800" transform="rotate(180 108.000 223.500)">180</text>
<text x="94.890" y="223.653" transform="rotate(190 94.890 222.353)">190</text>
<text x="82.177" y="220.247" transform="rotate(200 82.177 218.947)">200</text>
<text x="70.250" y="214.685" transform="rotate(210 70.250 213.385)">210</text>
<text x="59.470" y="207.136" transform="rotate(220 59.470 205.836)">220</text>
<text x="50.164" y="197.830" transform="rotate(230 50.164 196.530)">230</text>
<text x="42.615" y="187.050" transform="rotate(240 42.615 185.750)">240</text>
<text x="37.053" y="175.123" transform="rotate(250 37.053 173.823)">250</text>
<text x="33.647" y="162.410" transform="rotate(260 33.647 161.110)">260</text>
<text x="32.500" y="149.300" transform="rotate(270 32.500 148.000)">270</text>
<text x="33.647" y="136.190" transform="rotate(280 33.647 134.890)">280</text>
<text x="37.053" y="123.477" transform="rotate(290 37.053 122.177)">290</text>
<text x="42.615" y="111.550" transform="rotate(300 42.615 110.250)">300</text>
<text x="50.164" y="100.770" transform="rotate(310 50.164 99.470)">310</text>
<text x="59.470" y="91.464" transform="rotate(320 59.470 90.164)">320</text>
<text x="70.250" y="83.915" transform="rotate(330 70.250 82.615)">330</text>
<text x="82.177" y="78.353" transform="rotate(340 82.177 77.053)">340</text>
<text x="94.890" y="74.947" transform="rotate(350 94.890 73.647)">350</text>
</g>
<g stroke="black" stroke-width="0.8">
<line x1="108.000" y1="56.000" x2="108.000" y2="144.000"/>
<line x1="187.674" y1="194.000" x2="111.464" y2="150.000"/>
<line x1="28.326" y1="194.000" x2="104.536" y2="150.000"/>
</g>
<g font-family="Helvetica,Arial" font-size="4.6" font-weight="bold" text-anchor="middle">
<text x="108.000" y="83.000" transform="rotate(0 108.000 83.000)">CYL 1  TDC</text>
<text x="164.292" y="180.500" transform="rotate(120 164.292 180.500)">CYL 2  TDC</text>
<text x="51.708" y="180.500" transform="rotate(240 51.708 180.500)">CYL 3  TDC</text>
</g>
<g stroke="black" stroke-width="0.25">
<line x1="77.000" y1="94.306" x2="80.000" y2="99.503"/>
<line x1="77.942" y1="93.774" x2="79.396" y2="96.397"/>
<line x1="78.893" y1="93.257" x2="80.301" y2="95.906"/>
<line x1="79.853" y1="92.758" x2="81.215" y2="95.431"/>
<line x1="80.821" y1="92.275" x2="82.136" y2="94.971"/>
<line x1="81.798" y1="91.809" x2="84.333" y2="97.247"/>
<line x1="82.782" y1="91.360" x2="84.003" y2="94.101"/>
<line x1="83.775" y1="90.929" x2="84.947" y2="93.690"/>
<line x1="84.774" y1="90.515" x2="85.898" y2="93.296"/>
<line x1="85.781" y1="90.118" x2="86.856" y2="92.919"/>
<line x1="86.795" y1="89.739" x2="88.847" y2="95.377"/>
<line x1="87.815" y1="89.378" x2="88.791" y2="92.214"/>
<line x1="88.841" y1="89.034" x2="89.768" y2="91.888"/>
<line x1="89.873" y1="88.709" x2="90.750" y2="91.578"/>
<line x1="90.910" y1="88.402" x2="91.737" y2="91.286"/>
<line x1="91.953" y1="88.113" x2="93.506" y2="93.908"/>
<line x1="93.001" y1="87.842" x2="93.727" y2="90.753"/>
<line x1="94.053" y1="87.589" x2="94.728" y2="90.512"/>
<line x1="95.109" y1="87.355" x2="95.733" y2="90.289"/>
<line x1="96.170" y1="87.139" x2="96.742" y2="90.084"/>
<line x1="97.234" y1="86.942" x2="98.276" y2="92.851"/>
<line x1="98.301" y1="86.763" x2="98.770" y2="89.726"/>
<line x1="99.371" y1="86.603" x2="99.789" y2="89.574"/>
<line x1="100.444" y1="86.462" x2="100.810" y2="89.440"/>
<line x1="101.519" y1="86.340" x2="101.833" y2="89.323"/>
<line x1="102.596" y1="86.236" x2="103.119" y2="92.213"/>
<line x1="103.675" y1="86.151" x2="103.884" y2="89.144"/>
<line x1="104.755" y1="86.085" x2="104.912" y2="89.081"/>
<line x1="105.836" y1="86.038" x2="105.941" y2="89.036"/>
<line x1="106.918" y1="86.009" x2="106.970" y2="89.009"/>
<line x1="108.000" y1="86.000" x2="108.000" y2="92.000"/>
<line x1="109.082" y1="86.009" x2="109.030" y2="89.009"/>
<line x1="110.164" y1="86.038" x2="110.059" y2="89.036"/>
<line x1="111.245" y1="86.085" x2="111.088" y2="89.081"/>
<line x1="112.325" y1="86.151" x2="112.116" y2="89.144"/>
<line x1="113.404" y1="86.236" x2="112.881" y2="92.213"/>
<line x1="114.481" y1="86.340" x2="114.167" y2="89.323"/>
<line x1="115.556" y1="86.462" x2="115.190" y2="89.440"/>
<line x1="116.629" y1="86.603" x2="116.211" y2="89.574"/>
<line x1="117.699" y1="86.763" x2="117.230" y2="89.726"/>
<line x1="118.766" y1="86.942" x2="117.724" y2="92.851"/>
<line x1="119.830" y1="87.139" x2="119.258" y2="90.084"/>
<line x1="120.891" y1="87.355" x2="120.267" y2="90.289"/>
<line x1="121.947" y1="87.589" x2="121.272" y2="90.512"/>
<line x1="122.999" y1="87.842" x2="122.273" y2="90.753"/>
<line x1="124.047" y1="88.113" x2="122.494" y2="93.908"/>
<line x1="125.090" y1="88.402" x2="124.263" y2="91.286"/>
<line x1="126.127" y1="88.709" x2="125.250" y2="91.578"/>
<line x1="127.159" y1="89.034" x2="126.232" y2="91.888"/>
<line x1="128.185" y1="89.378" x2="127.209" y2="92.214"/>
<line x1="129.205" y1="89.739" x2="127.153" y2="95.377"/>
<line x1="130.219" y1="90.118" x2="129.144" y2="92.919"/>
<line x1="131.226" y1="90.515" x2="130.102" y2="93.296"/>
<line x1="132.225" y1="90.929" x2="131.053" y2="93.690"/>
<line x1="133.218" y1="91.360" x2="131.997" y2="94.101"/>
<line x1="134.202" y1="91.809" x2="131.667" y2="97.247"/>
<line x1="135.179" y1="92.275" x2="133.864" y2="94.971"/>
<line x1="136.147" y1="92.758" x2="134.785" y2="95.431"/>
<line x1="137.107" y1="93.257" x2="135.699" y2="95.906"/>
<line x1="138.058" y1="93.774" x2="136.604" y2="96.397"/>
<line x1="139.000" y1="94.306" x2="136.000" y2="99.503"/>
</g>
<g font-family="Helvetica,Arial" font-size="3.0" text-anchor="middle">
<text x="82.500" y="103.833" transform="rotate(-30 82.500 103.833)">30</text>
<text x="90.557" y="100.076" transform="rotate(-20 90.557 100.076)">20</text>
<text x="99.144" y="97.775" transform="rotate(-10 99.144 97.775)">10</text>
<text x="116.856" y="97.775" transform="rotate(10 116.856 97.775)">10</text>
<text x="125.443" y="100.076" transform="rotate(20 125.443 100.076)">20</text>
<text x="133.500" y="103.833" transform="rotate(30 133.500 103.833)">30</text>
</g>
<text x="92.951" y="106.654" font-family="Helvetica,Arial" font-size="3.4" font-weight="bold" text-anchor="middle" transform="rotate(-20 92.951 106.654)">&#8592; one side</text>
<text x="123.049" y="106.654" font-family="Helvetica,Arial" font-size="3.4" font-weight="bold" text-anchor="middle" transform="rotate(20 123.049 106.654)">other side &#8594;</text>
<g stroke="black" stroke-width="0.3"><line x1="100.0" y1="148.0" x2="116.0" y2="148.0"/><line x1="108.0" y1="140.0" x2="108.0" y2="156.0"/></g>
<g font-family="Helvetica,Arial" fill="black">
<text x="108" y="12" font-size="6" font-weight="bold" text-anchor="middle">3-Cylinder Degree Wheel &#8212; 120&#176; spacing</text>
<text x="108" y="18.5" font-size="3.4" text-anchor="middle">Print at 100% / &#8220;Actual size&#8221; &#8212; do NOT use &#8220;fit to page&#8221;. Verify with the bar below.</text>
<line x1="58" y1="256" x2="158" y2="256" stroke="black" stroke-width="0.6"/>
<line x1="58" y1="253" x2="58" y2="259" stroke="black" stroke-width="0.6"/>
<line x1="158" y1="253" x2="158" y2="259" stroke="black" stroke-width="0.6"/>
<text x="108" y="264" font-size="3.6" text-anchor="middle">This bar must measure exactly 100 mm</text>
<text x="108" y="271" font-size="3.2" text-anchor="middle">BTDC is the side OPPOSITE crank rotation. Confirm rotation direction before reading advance.</text>
<text x="108" y="276" font-size="3.2" text-anchor="middle">Wheel outer diameter = 184 mm. Mount on crank/PTO, 0&#176; = cyl 1 TDC, fixed pointer at the rim.</text>
</g>
</svg>